%TF.GenerationSoftware,KiCad,Pcbnew,9.0.2*%
%TF.CreationDate,2025-06-04T00:58:58-04:00*%
%TF.ProjectId,placapcbbalanza,706c6163-6170-4636-9262-616c616e7a61,rev?*%
%TF.SameCoordinates,Original*%
%TF.FileFunction,Legend,Top*%
%TF.FilePolarity,Positive*%
%FSLAX46Y46*%
G04 Gerber Fmt 4.6, Leading zero omitted, Abs format (unit mm)*
G04 Created by KiCad (PCBNEW 9.0.2) date 2025-06-04 00:58:58*
%MOMM*%
%LPD*%
G01*
G04 APERTURE LIST*
%ADD10C,0.150000*%
%ADD11C,0.120000*%
G04 APERTURE END LIST*
D10*
X24511700Y-28078832D02*
X24559319Y-27935975D01*
X24559319Y-27935975D02*
X24559319Y-27697880D01*
X24559319Y-27697880D02*
X24511700Y-27602642D01*
X24511700Y-27602642D02*
X24464080Y-27555023D01*
X24464080Y-27555023D02*
X24368842Y-27507404D01*
X24368842Y-27507404D02*
X24273604Y-27507404D01*
X24273604Y-27507404D02*
X24178366Y-27555023D01*
X24178366Y-27555023D02*
X24130747Y-27602642D01*
X24130747Y-27602642D02*
X24083128Y-27697880D01*
X24083128Y-27697880D02*
X24035509Y-27888356D01*
X24035509Y-27888356D02*
X23987890Y-27983594D01*
X23987890Y-27983594D02*
X23940271Y-28031213D01*
X23940271Y-28031213D02*
X23845033Y-28078832D01*
X23845033Y-28078832D02*
X23749795Y-28078832D01*
X23749795Y-28078832D02*
X23654557Y-28031213D01*
X23654557Y-28031213D02*
X23606938Y-27983594D01*
X23606938Y-27983594D02*
X23559319Y-27888356D01*
X23559319Y-27888356D02*
X23559319Y-27650261D01*
X23559319Y-27650261D02*
X23606938Y-27507404D01*
X23559319Y-27174070D02*
X24559319Y-26935975D01*
X24559319Y-26935975D02*
X23845033Y-26745499D01*
X23845033Y-26745499D02*
X24559319Y-26555023D01*
X24559319Y-26555023D02*
X23559319Y-26316928D01*
X23892652Y-25507404D02*
X24559319Y-25507404D01*
X23511700Y-25745499D02*
X24225985Y-25983594D01*
X24225985Y-25983594D02*
X24225985Y-25364547D01*
X30759319Y-18408833D02*
X31473604Y-18408833D01*
X31473604Y-18408833D02*
X31616461Y-18456452D01*
X31616461Y-18456452D02*
X31711700Y-18551690D01*
X31711700Y-18551690D02*
X31759319Y-18694547D01*
X31759319Y-18694547D02*
X31759319Y-18789785D01*
X30759319Y-18027880D02*
X30759319Y-17408833D01*
X30759319Y-17408833D02*
X31140271Y-17742166D01*
X31140271Y-17742166D02*
X31140271Y-17599309D01*
X31140271Y-17599309D02*
X31187890Y-17504071D01*
X31187890Y-17504071D02*
X31235509Y-17456452D01*
X31235509Y-17456452D02*
X31330747Y-17408833D01*
X31330747Y-17408833D02*
X31568842Y-17408833D01*
X31568842Y-17408833D02*
X31664080Y-17456452D01*
X31664080Y-17456452D02*
X31711700Y-17504071D01*
X31711700Y-17504071D02*
X31759319Y-17599309D01*
X31759319Y-17599309D02*
X31759319Y-17885023D01*
X31759319Y-17885023D02*
X31711700Y-17980261D01*
X31711700Y-17980261D02*
X31664080Y-18027880D01*
X59101166Y-36570319D02*
X59101166Y-37284604D01*
X59101166Y-37284604D02*
X59053547Y-37427461D01*
X59053547Y-37427461D02*
X58958309Y-37522700D01*
X58958309Y-37522700D02*
X58815452Y-37570319D01*
X58815452Y-37570319D02*
X58720214Y-37570319D01*
X59529738Y-36665557D02*
X59577357Y-36617938D01*
X59577357Y-36617938D02*
X59672595Y-36570319D01*
X59672595Y-36570319D02*
X59910690Y-36570319D01*
X59910690Y-36570319D02*
X60005928Y-36617938D01*
X60005928Y-36617938D02*
X60053547Y-36665557D01*
X60053547Y-36665557D02*
X60101166Y-36760795D01*
X60101166Y-36760795D02*
X60101166Y-36856033D01*
X60101166Y-36856033D02*
X60053547Y-36998890D01*
X60053547Y-36998890D02*
X59482119Y-37570319D01*
X59482119Y-37570319D02*
X60101166Y-37570319D01*
X47149319Y-19408833D02*
X47863604Y-19408833D01*
X47863604Y-19408833D02*
X48006461Y-19456452D01*
X48006461Y-19456452D02*
X48101700Y-19551690D01*
X48101700Y-19551690D02*
X48149319Y-19694547D01*
X48149319Y-19694547D02*
X48149319Y-19789785D01*
X47482652Y-18504071D02*
X48149319Y-18504071D01*
X47101700Y-18742166D02*
X47815985Y-18980261D01*
X47815985Y-18980261D02*
X47815985Y-18361214D01*
X24761700Y-50828832D02*
X24809319Y-50685975D01*
X24809319Y-50685975D02*
X24809319Y-50447880D01*
X24809319Y-50447880D02*
X24761700Y-50352642D01*
X24761700Y-50352642D02*
X24714080Y-50305023D01*
X24714080Y-50305023D02*
X24618842Y-50257404D01*
X24618842Y-50257404D02*
X24523604Y-50257404D01*
X24523604Y-50257404D02*
X24428366Y-50305023D01*
X24428366Y-50305023D02*
X24380747Y-50352642D01*
X24380747Y-50352642D02*
X24333128Y-50447880D01*
X24333128Y-50447880D02*
X24285509Y-50638356D01*
X24285509Y-50638356D02*
X24237890Y-50733594D01*
X24237890Y-50733594D02*
X24190271Y-50781213D01*
X24190271Y-50781213D02*
X24095033Y-50828832D01*
X24095033Y-50828832D02*
X23999795Y-50828832D01*
X23999795Y-50828832D02*
X23904557Y-50781213D01*
X23904557Y-50781213D02*
X23856938Y-50733594D01*
X23856938Y-50733594D02*
X23809319Y-50638356D01*
X23809319Y-50638356D02*
X23809319Y-50400261D01*
X23809319Y-50400261D02*
X23856938Y-50257404D01*
X23809319Y-49924070D02*
X24809319Y-49685975D01*
X24809319Y-49685975D02*
X24095033Y-49495499D01*
X24095033Y-49495499D02*
X24809319Y-49305023D01*
X24809319Y-49305023D02*
X23809319Y-49066928D01*
X23904557Y-48733594D02*
X23856938Y-48685975D01*
X23856938Y-48685975D02*
X23809319Y-48590737D01*
X23809319Y-48590737D02*
X23809319Y-48352642D01*
X23809319Y-48352642D02*
X23856938Y-48257404D01*
X23856938Y-48257404D02*
X23904557Y-48209785D01*
X23904557Y-48209785D02*
X23999795Y-48162166D01*
X23999795Y-48162166D02*
X24095033Y-48162166D01*
X24095033Y-48162166D02*
X24237890Y-48209785D01*
X24237890Y-48209785D02*
X24809319Y-48781213D01*
X24809319Y-48781213D02*
X24809319Y-48162166D01*
X37590214Y-21724604D02*
X38066404Y-21724604D01*
X37494976Y-22010319D02*
X37828309Y-21010319D01*
X37828309Y-21010319D02*
X38161642Y-22010319D01*
X39018785Y-22010319D02*
X38447357Y-22010319D01*
X38733071Y-22010319D02*
X38733071Y-21010319D01*
X38733071Y-21010319D02*
X38637833Y-21153176D01*
X38637833Y-21153176D02*
X38542595Y-21248414D01*
X38542595Y-21248414D02*
X38447357Y-21296033D01*
X37042595Y-61650319D02*
X37042595Y-62459842D01*
X37042595Y-62459842D02*
X37090214Y-62555080D01*
X37090214Y-62555080D02*
X37137833Y-62602700D01*
X37137833Y-62602700D02*
X37233071Y-62650319D01*
X37233071Y-62650319D02*
X37423547Y-62650319D01*
X37423547Y-62650319D02*
X37518785Y-62602700D01*
X37518785Y-62602700D02*
X37566404Y-62555080D01*
X37566404Y-62555080D02*
X37614023Y-62459842D01*
X37614023Y-62459842D02*
X37614023Y-61650319D01*
X38042595Y-62602700D02*
X38185452Y-62650319D01*
X38185452Y-62650319D02*
X38423547Y-62650319D01*
X38423547Y-62650319D02*
X38518785Y-62602700D01*
X38518785Y-62602700D02*
X38566404Y-62555080D01*
X38566404Y-62555080D02*
X38614023Y-62459842D01*
X38614023Y-62459842D02*
X38614023Y-62364604D01*
X38614023Y-62364604D02*
X38566404Y-62269366D01*
X38566404Y-62269366D02*
X38518785Y-62221747D01*
X38518785Y-62221747D02*
X38423547Y-62174128D01*
X38423547Y-62174128D02*
X38233071Y-62126509D01*
X38233071Y-62126509D02*
X38137833Y-62078890D01*
X38137833Y-62078890D02*
X38090214Y-62031271D01*
X38090214Y-62031271D02*
X38042595Y-61936033D01*
X38042595Y-61936033D02*
X38042595Y-61840795D01*
X38042595Y-61840795D02*
X38090214Y-61745557D01*
X38090214Y-61745557D02*
X38137833Y-61697938D01*
X38137833Y-61697938D02*
X38233071Y-61650319D01*
X38233071Y-61650319D02*
X38471166Y-61650319D01*
X38471166Y-61650319D02*
X38614023Y-61697938D01*
X39375928Y-62126509D02*
X39518785Y-62174128D01*
X39518785Y-62174128D02*
X39566404Y-62221747D01*
X39566404Y-62221747D02*
X39614023Y-62316985D01*
X39614023Y-62316985D02*
X39614023Y-62459842D01*
X39614023Y-62459842D02*
X39566404Y-62555080D01*
X39566404Y-62555080D02*
X39518785Y-62602700D01*
X39518785Y-62602700D02*
X39423547Y-62650319D01*
X39423547Y-62650319D02*
X39042595Y-62650319D01*
X39042595Y-62650319D02*
X39042595Y-61650319D01*
X39042595Y-61650319D02*
X39375928Y-61650319D01*
X39375928Y-61650319D02*
X39471166Y-61697938D01*
X39471166Y-61697938D02*
X39518785Y-61745557D01*
X39518785Y-61745557D02*
X39566404Y-61840795D01*
X39566404Y-61840795D02*
X39566404Y-61936033D01*
X39566404Y-61936033D02*
X39518785Y-62031271D01*
X39518785Y-62031271D02*
X39471166Y-62078890D01*
X39471166Y-62078890D02*
X39375928Y-62126509D01*
X39375928Y-62126509D02*
X39042595Y-62126509D01*
X24511700Y-39828832D02*
X24559319Y-39685975D01*
X24559319Y-39685975D02*
X24559319Y-39447880D01*
X24559319Y-39447880D02*
X24511700Y-39352642D01*
X24511700Y-39352642D02*
X24464080Y-39305023D01*
X24464080Y-39305023D02*
X24368842Y-39257404D01*
X24368842Y-39257404D02*
X24273604Y-39257404D01*
X24273604Y-39257404D02*
X24178366Y-39305023D01*
X24178366Y-39305023D02*
X24130747Y-39352642D01*
X24130747Y-39352642D02*
X24083128Y-39447880D01*
X24083128Y-39447880D02*
X24035509Y-39638356D01*
X24035509Y-39638356D02*
X23987890Y-39733594D01*
X23987890Y-39733594D02*
X23940271Y-39781213D01*
X23940271Y-39781213D02*
X23845033Y-39828832D01*
X23845033Y-39828832D02*
X23749795Y-39828832D01*
X23749795Y-39828832D02*
X23654557Y-39781213D01*
X23654557Y-39781213D02*
X23606938Y-39733594D01*
X23606938Y-39733594D02*
X23559319Y-39638356D01*
X23559319Y-39638356D02*
X23559319Y-39400261D01*
X23559319Y-39400261D02*
X23606938Y-39257404D01*
X23559319Y-38924070D02*
X24559319Y-38685975D01*
X24559319Y-38685975D02*
X23845033Y-38495499D01*
X23845033Y-38495499D02*
X24559319Y-38305023D01*
X24559319Y-38305023D02*
X23559319Y-38066928D01*
X24559319Y-37162166D02*
X24559319Y-37733594D01*
X24559319Y-37447880D02*
X23559319Y-37447880D01*
X23559319Y-37447880D02*
X23702176Y-37543118D01*
X23702176Y-37543118D02*
X23797414Y-37638356D01*
X23797414Y-37638356D02*
X23845033Y-37733594D01*
X56733547Y-63506509D02*
X56876404Y-63554128D01*
X56876404Y-63554128D02*
X56924023Y-63601747D01*
X56924023Y-63601747D02*
X56971642Y-63696985D01*
X56971642Y-63696985D02*
X56971642Y-63839842D01*
X56971642Y-63839842D02*
X56924023Y-63935080D01*
X56924023Y-63935080D02*
X56876404Y-63982700D01*
X56876404Y-63982700D02*
X56781166Y-64030319D01*
X56781166Y-64030319D02*
X56400214Y-64030319D01*
X56400214Y-64030319D02*
X56400214Y-63030319D01*
X56400214Y-63030319D02*
X56733547Y-63030319D01*
X56733547Y-63030319D02*
X56828785Y-63077938D01*
X56828785Y-63077938D02*
X56876404Y-63125557D01*
X56876404Y-63125557D02*
X56924023Y-63220795D01*
X56924023Y-63220795D02*
X56924023Y-63316033D01*
X56924023Y-63316033D02*
X56876404Y-63411271D01*
X56876404Y-63411271D02*
X56828785Y-63458890D01*
X56828785Y-63458890D02*
X56733547Y-63506509D01*
X56733547Y-63506509D02*
X56400214Y-63506509D01*
X57304976Y-63030319D02*
X57971642Y-63030319D01*
X57971642Y-63030319D02*
X57304976Y-64030319D01*
X57304976Y-64030319D02*
X57971642Y-64030319D01*
X58876404Y-64030319D02*
X58304976Y-64030319D01*
X58590690Y-64030319D02*
X58590690Y-63030319D01*
X58590690Y-63030319D02*
X58495452Y-63173176D01*
X58495452Y-63173176D02*
X58400214Y-63268414D01*
X58400214Y-63268414D02*
X58304976Y-63316033D01*
X53733548Y-58049366D02*
X54495453Y-58049366D01*
X54114500Y-58430319D02*
X54114500Y-57668414D01*
D11*
%TO.C,SW4*%
X19554500Y-23475500D02*
X19554500Y-29675500D01*
X20014500Y-23475500D02*
X19554500Y-23475500D01*
X20014500Y-29675500D02*
X19554500Y-29675500D01*
X22794500Y-23475500D02*
X22794500Y-22475500D01*
X23254500Y-23475500D02*
X22794500Y-23475500D01*
X23254500Y-29675500D02*
X22794500Y-29675500D01*
X23254500Y-29675500D02*
X23254500Y-23475500D01*
X21954500Y-25075500D02*
X20904500Y-25075500D01*
X20904500Y-27925500D01*
X21954500Y-27925500D01*
X21954500Y-25075500D01*
%TO.C,J3*%
X19924500Y-16695500D02*
X19924500Y-19455500D01*
X27654500Y-16695500D02*
X19924500Y-16695500D01*
X27654500Y-16695500D02*
X27654500Y-19455500D01*
X27654500Y-19455500D02*
X19924500Y-19455500D01*
X28924500Y-16695500D02*
X30304500Y-16695500D01*
X30304500Y-16695500D02*
X30304500Y-18075500D01*
%TO.C,J2*%
X58054500Y-38115500D02*
X59434500Y-38115500D01*
X58054500Y-39495500D02*
X58054500Y-38115500D01*
X58054500Y-40765500D02*
X58054500Y-45955500D01*
X58054500Y-40765500D02*
X60814500Y-40765500D01*
X58054500Y-45955500D02*
X60814500Y-45955500D01*
X60814500Y-40765500D02*
X60814500Y-45955500D01*
%TO.C,J4*%
X48694500Y-20455500D02*
X48694500Y-19075500D01*
X50074500Y-20455500D02*
X48694500Y-20455500D01*
X51344500Y-17695500D02*
X59074500Y-17695500D01*
X51344500Y-20455500D02*
X51344500Y-17695500D01*
X51344500Y-20455500D02*
X59074500Y-20455500D01*
X59074500Y-20455500D02*
X59074500Y-17695500D01*
%TO.C,SW2*%
X19804500Y-46225500D02*
X19804500Y-52425500D01*
X20264500Y-46225500D02*
X19804500Y-46225500D01*
X20264500Y-52425500D02*
X19804500Y-52425500D01*
X23044500Y-46225500D02*
X23044500Y-45225500D01*
X23504500Y-46225500D02*
X23044500Y-46225500D01*
X23504500Y-52425500D02*
X23044500Y-52425500D01*
X23504500Y-52425500D02*
X23504500Y-46225500D01*
X22204500Y-47825500D02*
X21154500Y-47825500D01*
X21154500Y-50675500D01*
X22204500Y-50675500D01*
X22204500Y-47825500D01*
%TO.C,A1*%
X29284500Y-22695500D02*
X29284500Y-25365500D01*
X29284500Y-27905500D02*
X29284500Y-66135500D01*
X29284500Y-66135500D02*
X34364500Y-66135500D01*
X31954500Y-25365500D02*
X29284500Y-25365500D01*
X31954500Y-27905500D02*
X29284500Y-27905500D01*
X31954500Y-27905500D02*
X31954500Y-25365500D01*
X31954500Y-27905500D02*
X31954500Y-63465500D01*
X31954500Y-63465500D02*
X29284500Y-63465500D01*
X34364500Y-58255500D02*
X42244500Y-58255500D01*
X34364500Y-68675500D02*
X34364500Y-58255500D01*
X42244500Y-58255500D02*
X42244500Y-68675500D01*
X42244500Y-68675500D02*
X34364500Y-68675500D01*
X44654500Y-25365500D02*
X44654500Y-63465500D01*
X44654500Y-25365500D02*
X47324500Y-25365500D01*
X44654500Y-63465500D02*
X47324500Y-63465500D01*
X47324500Y-22695500D02*
X29284500Y-22695500D01*
X47324500Y-66135500D02*
X42244500Y-66135500D01*
X47324500Y-66135500D02*
X47324500Y-22695500D01*
%TO.C,SW1*%
X19554500Y-35225500D02*
X19554500Y-41425500D01*
X20014500Y-35225500D02*
X19554500Y-35225500D01*
X20014500Y-41425500D02*
X19554500Y-41425500D01*
X22794500Y-35225500D02*
X22794500Y-34225500D01*
X23254500Y-35225500D02*
X22794500Y-35225500D01*
X23254500Y-41425500D02*
X22794500Y-41425500D01*
X23254500Y-41425500D02*
X23254500Y-35225500D01*
X21954500Y-36825500D02*
X20904500Y-36825500D01*
X20904500Y-39675500D01*
X21954500Y-39675500D01*
X21954500Y-36825500D01*
%TO.C,BZ1*%
X62234500Y-58075500D02*
G75*
G02*
X52994500Y-58075500I-4620000J0D01*
G01*
X52994500Y-58075500D02*
G75*
G02*
X62234500Y-58075500I4620000J0D01*
G01*
%TD*%
M02*
